<svg viewBox="0 0 1000 1001.0101" xmlns="http://www.w3.org/2000/svg"><path d="m500 5.456c-38 0-68 21-68 47l23 258c2 16 21 28 45 28 23 0 42-12 45-28l23-258c0-26-30-47-68-47zm-143 362-215-149c-22-13-56 2-75 35-18 33-15 69 7 82l238 109c14 6 34-5 46-25s11-42-1-52zm331 77 238-109c22-13 26-50 6-82-18-33-52-48-75-35l-215 149c-12 10-13 32-1 52s32 31 47 25zm-188 218c-24 0-43 12-45 28l-23 258c0 26 30 47 68 47s69-21 69-47l-23-258c-3-16-23-28-46-28zm426 4-238-110c-15-6-36 5-47 25-12 20-11 42 1 53l215 149c23 13 56-2 75-35 20-33 16-69-6-82zm-614-110-238 109c-22 13-25 50-6 82 18 33 52 49 74 36l215-149c13-10 13-33 1-53-12-21-31-31-46-25z"/></svg>